<?xml version="1.0" encoding="UTF-8"?>
<svg version="1.1" xmlns="http://www.w3.org/2000/svg" width="800" height="188">
<path d="M0 0 C25.08 0 50.16 0 76 0 C76 21.78 76 43.56 76 66 C73.03 66 70.06 66 67 66 C67 68.97 67 71.94 67 75 C63.7 75 60.4 75 57 75 C57 77.97 57 80.94 57 84 C41.82 84 26.64 84 11 84 C11 86.64 11 89.28 11 92 C32.45 92 53.9 92 76 92 C76 117.08 76 142.16 76 168 C66.43 168 56.86 168 47 168 C47 149.52 47 131.04 47 112 C35.12 112 23.24 112 11 112 C11 130.48 11 148.96 11 168 C1.43 168 -8.14 168 -18 168 C-18 149.52 -18 131.04 -18 112 C-20.97 112 -23.94 112 -27 112 C-27 109.03 -27 106.06 -27 103 C-30.3 103 -33.6 103 -37 103 C-37.09765625 95.28515625 -37.09765625 95.28515625 -37 93 C-36 92 -36 92 -34.23413086 91.88647461 C-33.48526611 91.89171143 -32.73640137 91.89694824 -31.96484375 91.90234375 C-31.15595703 91.90556641 -30.34707031 91.90878906 -29.51367188 91.91210938 C-28.66353516 91.92048828 -27.81339844 91.92886719 -26.9375 91.9375 C-26.08349609 91.94201172 -25.22949219 91.94652344 -24.34960938 91.95117188 C-22.23304337 91.96299627 -20.11651315 91.98093231 -18 92 C-18 89.36 -18 86.72 -18 84 C-24.27 84 -30.54 84 -37 84 C-37 80.7 -37 77.4 -37 74 C-33.7 74 -30.4 74 -27 74 C-27 70.37 -27 66.74 -27 63 C-24.03 63 -21.06 63 -18 63 C-18 48.15 -18 33.3 -18 18 C-15.03 18 -12.06 18 -9 18 C-9 14.7 -9 11.4 -9 8 C-6.03 8 -3.06 8 0 8 C0 5.36 0 2.72 0 0 Z M11 20 C11 34.19 11 48.38 11 63 C22.88 63 34.76 63 47 63 C47 48.81 47 34.62 47 20 C35.12 20 23.24 20 11 20 Z " fill="#D8A4A4" transform="translate(500,14)"/>
<path d="M0 0 C25.08 0 50.16 0 76 0 C76.04030303 32.56037353 76.04030303 32.56037353 76.04882812 46.16210938 C76.05477118 55.56893456 76.06177303 64.97575081 76.07543945 74.38256836 C76.0853861 81.23225475 76.09185338 88.08193392 76.09408849 94.93162733 C76.09539563 98.56069396 76.09848169 102.18973994 76.10573006 105.81879997 C76.11374356 109.86350304 76.11399115 113.90816989 76.11352539 117.95288086 C76.11712067 119.16488159 76.12071594 120.37688232 76.12442017 121.62561035 C76.1230455 122.72082504 76.12167084 123.81603973 76.12025452 124.94444275 C76.12117631 125.90218566 76.1220981 126.85992857 76.12304783 127.84669399 C76 130 76 130 75 131 C72.32941149 131.14115161 69.67567762 131.04247107 67 131 C67.020625 132.299375 67.04125 133.59875 67.0625 134.9375 C67.08399454 136.29165633 67.07148199 137.64756083 67 139 C66 140 66 140 63.93359375 140.09765625 C61.62239583 140.06510417 59.31119792 140.03255208 57 140 C57 142.97 57 145.94 57 149 C53.37 149 49.74 149 46 149 C46 130.85 46 112.7 46 94 C34.45 94 22.9 94 11 94 C11 112.15 11 130.3 11 149 C1.43 149 -8.14 149 -18 149 C-18 130.85 -18 112.7 -18 94 C-20.97 94 -23.94 94 -27 94 C-28 93 -28 93 -28.09765625 90.93359375 C-28.04882812 87.46679688 -28.04882812 87.46679688 -28 84 C-30.97 84 -33.94 84 -37 84 C-37 80.7 -37 77.4 -37 74 C-30.73 74 -24.46 74 -18 74 C-18 55.52 -18 37.04 -18 18 C-15.03 18 -12.06 18 -9 18 C-9 14.7 -9 11.4 -9 8 C-6.03 8 -3.06 8 0 8 C0 5.36 0 2.72 0 0 Z M11 20 C11 37.82 11 55.64 11 74 C22.55 74 34.1 74 46 74 C46 56.18 46 38.36 46 20 C34.45 20 22.9 20 11 20 Z " fill="#D8A4A4" transform="translate(47,14)"/>
<path d="M0 0 C25.08 0 50.16 0 76 0 C76.04030303 32.56037353 76.04030303 32.56037353 76.04882812 46.16210938 C76.05477118 55.56893456 76.06177303 64.97575081 76.07543945 74.38256836 C76.0853861 81.23225475 76.09185338 88.08193392 76.09408849 94.93162733 C76.09539563 98.56069396 76.09848169 102.18973994 76.10573006 105.81879997 C76.11374356 109.86350304 76.11399115 113.90816989 76.11352539 117.95288086 C76.11712067 119.16488159 76.12071594 120.37688232 76.12442017 121.62561035 C76.1230455 122.72082504 76.12167084 123.81603973 76.12025452 124.94444275 C76.12117631 125.90218566 76.1220981 126.85992857 76.12304783 127.84669399 C76 130 76 130 75 131 C71.99668982 131.14193337 69.00782866 131.04236378 66 131 C66 133.97 66 136.94 66 140 C63.03 140 60.06 140 57 140 C57 142.97 57 145.94 57 149 C53.37 149 49.74 149 46 149 C46 130.85 46 112.7 46 94 C34.45 94 22.9 94 11 94 C11 112.15 11 130.3 11 149 C1.43 149 -8.14 149 -18 149 C-18 130.85 -18 112.7 -18 94 C-20.97 94 -23.94 94 -27 94 C-28 93 -28 93 -28.09765625 90.93359375 C-28.04882812 87.46679688 -28.04882812 87.46679688 -28 84 C-30.97 84 -33.94 84 -37 84 C-37 80.7 -37 77.4 -37 74 C-30.73 74 -24.46 74 -18 74 C-18 55.52 -18 37.04 -18 18 C-15.03 18 -12.06 18 -9 18 C-9 14.7 -9 11.4 -9 8 C-6.03 8 -3.06 8 0 8 C0 5.36 0 2.72 0 0 Z M11 20 C11 37.82 11 55.64 11 74 C22.55 74 34.1 74 46 74 C46 56.18 46 38.36 46 20 C34.45 20 22.9 20 11 20 Z " fill="#D8A4A4" transform="translate(380,14)"/>
<path d="M0 0 C9.9 0 19.8 0 30 0 C30 42.57 30 85.14 30 129 C41.55 129 53.1 129 65 129 C65 86.43 65 43.86 65 0 C68.63 0 72.26 0 76 0 C76 2.64 76 5.28 76 8 C78.97 8 81.94 8 85 8 C85 11.3 85 14.6 85 18 C87.97 18 90.94 18 94 18 C94 55.29 94 92.58 94 131 C91.03 131 88.06 131 85 131 C85 133.97 85 136.94 85 140 C82.03 140 79.06 140 76 140 C76 142.97 76 145.94 76 149 C50.92 149 25.84 149 0 149 C0 99.83 0 50.66 0 0 Z " fill="#D8A4A4" transform="translate(130,14)"/>
<path d="M0 0 C3.3 0 6.6 0 10 0 C10 18.15 10 36.3 10 55 C10.99 55 11.98 55 13 55 C13 49.39 13 43.78 13 38 C15.475 37.505 15.475 37.505 18 37 C18 33.37 18 29.74 18 26 C20.97 26 23.94 26 27 26 C26.979375 24.865625 26.95875 23.73125 26.9375 22.5625 C27 19 27 19 28 18 C30.65463121 17.54540142 33.32189138 17.29756762 36 17 C35.979375 15.88625 35.95875 14.7725 35.9375 13.625 C36 10 36 10 37 8 C39.97 8 42.94 8 46 8 C46 5.36 46 2.72 46 0 C49.63 0 53.26 0 57 0 C57 2.64 57 5.28 57 8 C59.97 8 62.94 8 66 8 C66 14.93 66 21.86 66 29 C63.03 29 60.06 29 57 29 C57 31.97 57 34.94 57 38 C53.7 38 50.4 38 47 38 C47 40.97 47 43.94 47 47 C44.03 47 41.06 47 38 47 C38 53.27 38 59.54 38 66 C35.03 66 32.06 66 29 66 C29 71.28 29 76.56 29 82 C31.97 82 34.94 82 38 82 C38 87.94 38 93.88 38 100 C40.97 100 43.94 100 47 100 C47 103.63 47 107.26 47 111 C50.3 111 53.6 111 57 111 C57 113.64 57 116.28 57 119 C59.97 119 62.94 119 66 119 C66 125.93 66 132.86 66 140 C63.03 140 60.06 140 57 140 C57 142.97 57 145.94 57 149 C53.37 149 49.74 149 46 149 C46 146.03 46 143.06 46 140 C43.8034375 140.0309375 43.8034375 140.0309375 41.5625 140.0625 C40.04167482 140.08392007 38.51928038 140.07179964 37 140 C36 139 36 139 35.90234375 137.15234375 C35.93489583 135.1015625 35.96744792 133.05078125 36 131 C34.0509375 131.0309375 34.0509375 131.0309375 32.0625 131.0625 C30.70834367 131.08399454 29.35243917 131.07148199 28 131 C27 130 27 130 26.90234375 127.93359375 C26.93489583 125.62239583 26.96744792 123.31119792 27 121 C24.03 121 21.06 121 18 121 C18 118.03 18 115.06 18 112 C16.35 112 14.7 112 13 112 C13 106.06 13 100.12 13 94 C12.01 94 11.02 94 10 94 C10 112.15 10 130.3 10 149 C4.06 149 -1.88 149 -8 149 C-8 151.97 -8 154.94 -8 158 C-11.63 158 -15.26 158 -19 158 C-19 133.58 -19 109.16 -19 84 C-24.94 84 -30.88 84 -37 84 C-37 80.7 -37 77.4 -37 74 C-34.03 74 -31.06 74 -28 74 C-28 70.37 -28 66.74 -28 63 C-25.03 63 -22.06 63 -19 63 C-19 48.15 -19 33.3 -19 18 C-16.03 18 -13.06 18 -10 18 C-10 14.7 -10 11.4 -10 8 C-5.545 7.505 -5.545 7.505 -1 7 C-0.67 4.69 -0.34 2.38 0 0 Z " fill="#D8A4A4" transform="translate(621,14)"/>
<path d="M0 0 C6.6 0 13.2 0 20 0 C20 14.85 20 29.7 20 45 C28.58 45 37.16 45 46 45 C46 32.79 46 20.58 46 8 C49.63 8 53.26 8 57 8 C57 11.3 57 14.6 57 18 C59.97 18 62.94 18 66 18 C66 20.64 66 23.28 66 26 C68.97 26 71.94 26 75 26 C75 60.65 75 95.3 75 131 C72.03 131 69.06 131 66 131 C66 133.97 66 136.94 66 140 C63.03 140 60.06 140 57 140 C57 142.97 57 145.94 57 149 C41.16 149 25.32 149 9 149 C9 146.03 9 143.06 9 140 C6.03 140 3.06 140 0 140 C0 137.03 0 134.06 0 131 C-2.1965625 131.0309375 -2.1965625 131.0309375 -4.4375 131.0625 C-5.95832518 131.08392007 -7.48071962 131.07179964 -9 131 C-10.57061385 129.42938615 -10.1272498 127.876244 -10.12939453 125.69555664 C-10.13254669 124.78113297 -10.13569885 123.86670929 -10.13894653 122.92457581 C-10.1369223 121.92981735 -10.13489807 120.9350589 -10.1328125 119.91015625 C-10.13376923 118.89529648 -10.13472595 117.88043671 -10.13571167 116.83482361 C-10.13639368 114.68358295 -10.13453798 112.53234025 -10.13037109 110.38110352 C-10.12502864 107.08019398 -10.13031257 103.77942086 -10.13671875 100.47851562 C-10.13605786 98.39322886 -10.13477648 96.30794219 -10.1328125 94.22265625 C-10.13483673 93.22992203 -10.13686096 92.23718781 -10.13894653 91.21437073 C-10.13579437 90.29679489 -10.13264221 89.37921906 -10.12939453 88.43383789 C-10.12859894 87.62411026 -10.12780334 86.81438263 -10.12698364 85.9801178 C-10 84 -10 84 -9 82 C-6.03 82 -3.06 82 0 82 C0 79.36 0 76.72 0 74 C6.6 74 13.2 74 20 74 C20 92.15 20 110.3 20 129 C28.58 129 37.16 129 46 129 C46 108.21 46 87.42 46 66 C27.94444318 66.03961062 27.94444318 66.03961062 9.88891602 66.09008789 C7.63557991 66.09300682 5.38224327 66.09555543 3.12890625 66.09765625 C1.35525696 66.1053302 1.35525696 66.1053302 -0.45422363 66.11315918 C-1.57075317 66.11328003 -2.68728271 66.11340088 -3.83764648 66.11352539 C-4.81249496 66.115746 -5.78734344 66.11796661 -6.79173279 66.12025452 C-9 66 -9 66 -10 65 C-10.09881245 63.29210719 -10.12798966 61.58013307 -10.12939453 59.86938477 C-10.13412277 58.2274691 -10.13412277 58.2274691 -10.13894653 56.55238342 C-10.1369223 55.36076096 -10.13489807 54.16913849 -10.1328125 52.94140625 C-10.13376923 51.72678207 -10.13472595 50.5121579 -10.13571167 49.26072693 C-10.13639377 46.68578032 -10.13453741 44.110832 -10.13037109 41.53588867 C-10.12502789 37.58313142 -10.13031274 33.63048804 -10.13671875 29.67773438 C-10.13605788 27.18229141 -10.13477654 24.68684853 -10.1328125 22.19140625 C-10.13483673 21.00180801 -10.13686096 19.81220978 -10.13894653 18.58656311 C-10.13579437 17.48880051 -10.13264221 16.3910379 -10.12939453 15.26000977 C-10.12859894 14.2903981 -10.12780334 13.32078644 -10.12698364 12.3217926 C-10 10 -10 10 -9 8 C-6.03 8 -3.06 8 0 8 C0 5.36 0 2.72 0 0 Z " fill="#D8A4A4" transform="translate(704,14)"/>
<path d="M0 0 C9.57 0 19.14 0 29 0 C29 5.94 29 11.88 29 18 C38.24 18 47.48 18 57 18 C57 20.64 57 23.28 57 26 C59.97 26 62.94 26 66 26 C66 39.2 66 52.4 66 66 C62.7 66 59.4 66 56 66 C56 63.03 56 60.06 56 57 C54.535625 57.020625 53.07125 57.04125 51.5625 57.0625 C50.04167482 57.08392007 48.51928038 57.07179964 47 57 C46 56 46 56 45.90234375 53.93359375 C45.93489583 51.62239583 45.96744792 49.31119792 46 47 C40.39 47 34.78 47 29 47 C29 74.06 29 101.12 29 129 C35.27 129 41.54 129 48 129 C48 132.63 48 136.26 48 140 C45.03 140 42.06 140 39 140 C39 142.97 39 145.94 39 149 C23.16 149 7.32 149 -9 149 C-9 145.04 -9 141.08 -9 137 C-6.03 137 -3.06 137 0 137 C0 107.3 0 77.6 0 47 C-2.97 47 -5.94 47 -9 47 C-9 44.03 -9 41.06 -9 38 C-15.27 38 -21.54 38 -28 38 C-28 35.03 -28 32.06 -28 29 C-30.97 29 -33.94 29 -37 29 C-37 25.37 -37 21.74 -37 18 C-24.79 18 -12.58 18 0 18 C0 12.06 0 6.12 0 0 Z " fill="#D8A4A4" transform="translate(269,14)"/>
</svg>
